<?xml version="1.0" standalone="no"?>
<!DOCTYPE svg PUBLIC "-//W3C//DTD SVG 20010904//EN"
 "http://www.w3.org/TR/2001/REC-SVG-20010904/DTD/svg10.dtd">
<svg version="1.0" xmlns="http://www.w3.org/2000/svg"
 width="324.000000pt" height="324.000000pt" viewBox="0 0 324.000000 324.000000"
 preserveAspectRatio="xMidYMid meet">
<metadata>
Created by potrace 1.11, written by Peter Selinger 2001-2013
</metadata>
<g transform="translate(0.000000,324.000000) scale(0.100000,-0.100000)"
fill="#000000" stroke="none">
<path d="M1399 2806 c-260 -54 -474 -170 -645 -349 -94 -98 -101 -108 -153
-189 -341 -541 -213 -1234 299 -1617 309 -231 729 -298 1097 -174 490 163 823
624 823 1138 0 330 -132 640 -372 870 -151 146 -326 245 -533 301 -87 23 -123
27 -275 30 -120 2 -195 -1 -241 -10z m26 -284 c90 -62 145 -186 152 -342 4
-89 2 -114 -16 -165 -53 -150 -178 -189 -288 -91 -58 53 -98 127 -118 221 -19
88 -19 134 0 213 26 108 76 179 140 195 36 9 89 -3 130 -31z m625 -20 c63 -47
93 -125 93 -242 1 -259 -215 -487 -365 -385 -103 70 -117 285 -30 463 75 153
214 228 302 164z m-1055 -486 c96 -40 190 -185 202 -308 8 -86 -10 -150 -55
-200 -78 -87 -205 -66 -315 51 -142 151 -142 382 -2 459 29 16 130 15 170 -2z
m1405 -115 c19 -10 49 -37 65 -60 28 -40 30 -49 30 -134 0 -80 -4 -99 -28
-149 -85 -172 -268 -263 -372 -184 -57 44 -78 102 -73 201 5 102 45 193 115
263 77 77 188 103 263 63z m-692 -261 c208 -91 461 -470 428 -643 -8 -44 -64
-106 -125 -137 -60 -30 -125 -26 -231 14 -133 52 -137 52 -295 10 -113 -30
-159 -38 -235 -38 -87 -1 -99 1 -148 29 -64 35 -84 69 -83 139 2 213 314 594
527 645 48 12 106 5 162 -19z"/>
</g>
</svg>
